<svg width="32" height="32" viewBox="0 0 32 32" fill="none" xmlns="http://www.w3.org/2000/svg">
<path fill-rule="evenodd" clip-rule="evenodd" d="M19.0572 1.72386C19.5779 1.20316 20.4221 1.20316 20.9428 1.72386L31.6095 12.3905C32.1301 12.9112 32.1301 13.7555 31.6095 14.2761L24 21.8856V25.3333C24 27.5425 22.2092 29.3333 20 29.3333H6.66667C2.98477 29.3333 0 26.3485 0 22.6667V10.6667C0 7.72115 2.38781 5.33334 5.33333 5.33334H15.4477L19.0572 1.72386ZM12.7811 8H5.33333C3.86057 8 2.66667 9.19391 2.66667 10.6667V22.6667C2.66667 24.8759 4.45753 26.6667 6.66667 26.6667H20C20.7364 26.6667 21.3333 26.0697 21.3333 25.3333V21.3343V21.3324V14.6667C21.3333 13.9303 20.7364 13.3333 20 13.3333H10.6676H10.6657H6.66667C5.19391 13.3333 4 12.1394 4 10.6667V10C4 9.26363 4.59696 8.66667 5.33333 8.66667C6.06971 8.66667 6.66667 9.26363 6.66667 10V10.6667H10.1144L12.7811 8ZM13.8856 10.6667H20C22.2092 10.6667 24 12.4575 24 14.6667V18.1144L28.7811 13.3333L20 4.55228L16.9428 7.60948L13.8856 10.6667Z" fill="black"/>
</svg>
