<svg width="58" height="58" viewBox="0 0 58 58" fill="none" xmlns="http://www.w3.org/2000/svg">
<g clip-path="url(#clip0_73_29)">
<path d="M23.5403 3.0824V15.2771C23.5403 16.0587 22.9088 16.6885 22.1307 16.6885H21.7538C20.9757 16.6885 20.3424 16.0587 20.3424 15.2771V3.02657C20.3424 1.01681 18.9904 0.416668 17.6941 0.416668C16.3978 0.416668 15.0458 1.01681 15.0458 3.02657V15.2771C15.0458 16.0587 14.4125 16.6885 13.6344 16.6885H13.2576C12.4795 16.6885 11.8479 16.0587 11.8479 15.2771V3.0824C11.8479 -0.51497 6.71879 -0.392821 6.71879 3.12248C6.71879 7.33216 6.71879 14.7676 6.71879 14.7676C6.69434 21.233 8.24007 22.9131 10.7907 24.9281C12.8476 26.5505 14.6043 27.4804 14.6043 31.5104V57.4351H20.7837V31.5104C20.7837 27.4804 22.5404 26.5505 24.5973 24.9281C27.1496 22.9131 28.6937 21.233 28.6692 14.7676C28.6692 14.7676 28.6692 7.33216 28.6692 3.12248C28.6693 -0.392821 23.5403 -0.51497 23.5403 3.0824Z" fill="white"/>
<path d="M43.4286 4.29663C42.1167 7.97595 38.3397 16.5959 38.1006 24.2094C37.7307 36.0273 44.9726 34.2792 45.1016 42.0216V57.5066H51.2513L51.281 57.5834C51.281 57.5834 51.281 57.5521 51.281 57.5066C51.281 56.472 51.281 44.1501 51.281 31.5803C51.281 19.1467 51.281 6.48091 51.281 4.29674C51.281 -0.190504 45.4714 -1.42908 43.4286 4.29663Z" fill="white"/>
</g>
<defs>
<clipPath id="clip0_73_29">
<rect width="57.1667" height="57.1667" fill="white" transform="translate(0.416504 0.416668)"/>
</clipPath>
</defs>
</svg>
