<svg width="72" height="72" viewBox="0 0 72 72" fill="none" xmlns="http://www.w3.org/2000/svg">
<g clip-path="url(#clip0_73_49)">
<path d="M29.3164 71.632C29.0237 71.6325 28.7338 71.5754 28.4632 71.4638C28.1927 71.3522 27.9467 71.1884 27.7395 70.9817L20.6796 63.9172C20.4721 63.7104 20.3074 63.4646 20.195 63.194C20.0827 62.9235 20.0248 62.6334 20.0248 62.3404C20.0248 62.0474 20.0827 61.7573 20.195 61.4868C20.3074 61.2162 20.4721 60.9704 20.6796 60.7636C21.3015 60.145 21.7946 59.4092 22.1302 58.5987C22.4659 57.7883 22.6375 56.9193 22.635 56.0421C22.635 54.2701 21.931 52.5706 20.678 51.3176C19.425 50.0646 17.7256 49.3607 15.9536 49.3607C15.0764 49.3582 14.2074 49.5297 13.3969 49.8654C12.5865 50.201 11.8506 50.6941 11.2321 51.3161C11.0252 51.5236 10.7795 51.6882 10.5089 51.8006C10.2383 51.913 9.9482 51.9708 9.65522 51.9709C9.36225 51.9708 9.07214 51.913 8.80156 51.8006C8.53099 51.6882 8.28524 51.5236 8.0784 51.3161L1.01393 44.2561C0.80653 44.0492 0.642016 43.8034 0.52974 43.5329C0.417464 43.2623 0.359619 42.9722 0.359619 42.6793C0.359619 42.3863 0.417464 42.0963 0.52974 41.8257C0.642016 41.5551 0.80653 41.3093 1.01393 41.1025L41.1023 1.01406C41.3092 0.806652 41.555 0.642104 41.8256 0.529828C42.0962 0.417552 42.3862 0.359758 42.6792 0.359758C42.9721 0.359758 43.2622 0.417552 43.5328 0.529828C43.8033 0.642104 44.0491 0.806652 44.256 1.01406L51.316 8.07852C51.5235 8.28536 51.6882 8.53113 51.8005 8.8017C51.9129 9.07228 51.9707 9.36235 51.9708 9.65533C51.9707 9.94831 51.9129 10.2384 51.8005 10.509C51.6882 10.7796 51.5235 11.0253 51.316 11.2321C50.694 11.8507 50.2009 12.5866 49.8653 13.397C49.5296 14.2075 49.3581 15.0765 49.3606 15.9537C49.3606 17.7257 50.0645 19.4251 51.3175 20.6781C52.5705 21.9311 54.27 22.6351 56.042 22.6351C56.9192 22.6376 57.7882 22.466 58.5986 22.1304C59.4091 21.7947 60.1449 21.3016 60.7635 20.6797C60.9703 20.4722 61.2161 20.3075 61.4867 20.1952C61.7572 20.0828 62.0473 20.0249 62.3403 20.0249C62.6333 20.0249 62.9234 20.0828 63.194 20.1952C63.4646 20.3075 63.7103 20.4722 63.9171 20.6797L70.9816 27.7397C71.189 27.9465 71.3535 28.1923 71.4658 28.4629C71.5781 28.7335 71.6359 29.0235 71.6359 29.3165C71.6359 29.6094 71.5781 29.8995 71.4658 30.1701C71.3535 30.4406 71.189 30.6864 70.9816 30.8933L30.8932 70.9817C30.686 71.1884 30.44 71.3522 30.1695 71.4638C29.8989 71.5754 29.609 71.6325 29.3164 71.632ZM25.2452 62.1845L29.3164 66.2557L66.2556 29.3165L62.1844 25.2453C60.364 26.4531 58.2266 27.0948 56.042 27.0893C53.0886 27.0893 50.2562 25.9161 48.1679 23.8278C46.0795 21.7394 44.9063 18.907 44.9063 15.9537C44.9008 13.769 45.5425 11.6316 46.7504 9.81123L42.6792 5.74004L5.73993 42.6793L9.81114 46.7505C11.6316 45.5426 13.7689 44.9009 15.9536 44.9064C18.9069 44.9064 21.7393 46.0796 23.8276 48.168C25.916 50.2563 27.0892 53.0887 27.0892 56.0421C27.0947 58.2267 26.453 60.3641 25.2452 62.1845ZM33.7706 53.8149C33.478 53.8155 33.1881 53.7583 32.9175 53.6467C32.647 53.5351 32.401 53.3713 32.1938 53.1646L18.831 39.8018C18.6236 39.5949 18.4591 39.3492 18.3468 39.0786C18.2345 38.808 18.1767 38.518 18.1767 38.225C18.1767 37.9321 18.2345 37.642 18.3468 37.3714C18.4591 37.1008 18.6236 36.8551 18.831 36.6482L36.6481 18.8311C36.855 18.6237 37.1007 18.4592 37.3713 18.3469C37.6419 18.2346 37.932 18.1768 38.2249 18.1768C38.5178 18.1768 38.8079 18.2346 39.0785 18.3469C39.3491 18.4592 39.5948 18.6237 39.8017 18.8311L53.1645 32.1939C53.3719 32.4008 53.5365 32.6466 53.6487 32.9171C53.761 33.1877 53.8188 33.4778 53.8188 33.7707C53.8188 34.0637 53.761 34.3538 53.6487 34.6243C53.5365 34.8949 53.3719 35.1407 53.1645 35.3476L35.3475 53.1646C35.1403 53.3713 34.8943 53.5351 34.6238 53.6467C34.3532 53.7583 34.0633 53.8155 33.7706 53.8149ZM23.557 38.225L33.7706 48.4386L48.4385 33.7707L38.2249 23.5571L23.557 38.225Z" fill="white"/>
</g>
<defs>
<clipPath id="clip0_73_49">
<rect width="71.2727" height="71.2727" fill="white" transform="translate(0.363525 0.363636)"/>
</clipPath>
</defs>
</svg>
